<svg xmlns="http://www.w3.org/2000/svg" width="288" height="288" viewBox="0 0 288 288">
  <defs>
    <linearGradient id="barGrad" x1="0" y1="1" x2="0" y2="0">
      <stop offset="0%" stop-color="#00CC00"/>
      <stop offset="60%" stop-color="#FFCC00"/>
      <stop offset="100%" stop-color="#FF2200"/>
    </linearGradient>
    <filter id="glow">
      <feGaussianBlur stdDeviation="4" result="blur"/>
      <feMerge>
        <feMergeNode in="blur"/>
        <feMergeNode in="SourceGraphic"/>
      </feMerge>
    </filter>
  </defs>

  <!-- Background -->
  <rect width="288" height="288" rx="32" fill="#0A0A0A"/>

  <!-- Left channel bars -->
  <rect x="32" y="180" width="36" height="76" rx="4" fill="#00CC00" filter="url(#glow)" opacity="0.9"/>
  <rect x="32" y="100" width="36" height="156" rx="4" fill="url(#barGrad)" opacity="0.15"/>

  <rect x="78" y="130" width="36" height="126" rx="4" fill="#00DD00" filter="url(#glow)" opacity="0.9"/>
  <rect x="78" y="100" width="36" height="156" rx="4" fill="url(#barGrad)" opacity="0.15"/>

  <rect x="124" y="160" width="36" height="96" rx="4" fill="#CCDD00" filter="url(#glow)" opacity="0.9"/>
  <rect x="124" y="100" width="36" height="156" rx="4" fill="url(#barGrad)" opacity="0.15"/>

  <!-- Right channel bars -->
  <rect x="174" y="140" width="36" height="116" rx="4" fill="#00EE00" filter="url(#glow)" opacity="0.9"/>
  <rect x="174" y="100" width="36" height="156" rx="4" fill="url(#barGrad)" opacity="0.15"/>

  <rect x="220" y="170" width="36" height="86" rx="4" fill="#FFCC00" filter="url(#glow)" opacity="0.9"/>
  <rect x="220" y="100" width="36" height="156" rx="4" fill="url(#barGrad)" opacity="0.15"/>

  <!-- VU label -->
  <text x="144" y="60" text-anchor="middle" font-family="monospace" font-size="36" font-weight="bold" fill="#AAAAAA" letter-spacing="8">VU</text>

  <!-- Stereo indicators -->
  <text x="82" y="82" text-anchor="middle" font-family="monospace" font-size="14" fill="#00CC00" opacity="0.7">L</text>
  <text x="206" y="82" text-anchor="middle" font-family="monospace" font-size="14" fill="#00CC00" opacity="0.7">R</text>

  <!-- Peak lines -->
  <line x1="32" y1="178" x2="68" y2="178" stroke="#FFFFFF" stroke-width="2" opacity="0.8"/>
  <line x1="78" y1="128" x2="114" y2="128" stroke="#FFFFFF" stroke-width="2" opacity="0.8"/>
  <line x1="174" y1="138" x2="210" y2="138" stroke="#FFFFFF" stroke-width="2" opacity="0.8"/>
</svg>
